name C:\Users\tom_v\MusculoskeletalSpecialization_revisited\Results\Case_16\motion.mot
datacolumns 32
datarows 7
range 0.38453824 0.41530130
endheader 
time	pelvis_tilt	pelvis_list	pelvis_rotation	pelvis_tx	pelvis_ty	pelvis_tz	hip_flexion_r	hip_adduction_r	hip_rotation_r	knee_angle_r	ankle_angle_r	subtalar_angle_r	mtp_angle_r	hip_flexion_l	hip_adduction_l	hip_rotation_l	knee_angle_l	ankle_angle_l	subtalar_angle_l	mtp_angle_l	lumbar_extension	lumbar_bending	lumbar_rotation	arm_flex_r	arm_add_r	arm_rot_r	elbow_flex_r	arm_flex_l	arm_add_l	arm_rot_l	elbow_flex_l	
          0.38453824	         -6.76421708	         -0.85125568	          0.20577477	          1.27169066	          0.93989306	         -0.00233404	         32.97162881	          4.63736487	         -0.46854397	        -54.48152865	         22.63215305	          2.57738701	          3.06127595	         11.60712229	          5.71529709	          6.33890925	        -34.26404345	         15.49246079	         -2.85399081	         24.76033311	        -11.50411770	          0.21993062	         -1.24370200	          1.80191591	         -4.41814131	          0.30611283	         50.65158086	         19.48334297	          0.28180808	         -2.45987174	          1.93245933	
          0.38966542	         -6.78875288	         -0.99366604	          0.16466674	          1.28867250	          0.94150112	         -0.00232095	         33.89343635	          4.86129045	         -0.44605344	        -53.53361878	         22.28973457	          2.55334520	          2.86636084	         10.35137256	          5.31919587	          5.92979454	        -33.71607239	         14.17092349	         -2.34574372	         26.18445863	        -11.51061482	          0.52964284	         -1.43743290	          1.57941743	         -4.38915266	          0.20670969	         51.77507910	         19.50714536	          0.24069971	         -2.58874389	          1.45112505	
          0.39479259	         -6.81133960	         -1.12902947	          0.12015493	          1.30573743	          0.94306600	         -0.00230435	         34.76770712	          5.07225901	         -0.40990809	        -52.52952299	         21.85124335	          2.54527036	          2.68373249	          9.11011898	          4.92617887	          5.49641242	        -33.18187539	         12.74117451	         -1.80480326	         27.61992135	        -11.50812989	          0.83445249	         -1.62568887	          1.38929137	         -4.35163690	          0.12162611	         52.77091921	         19.48233339	          0.19334293	         -2.68133287	          1.06118567	
          0.39991977	         -6.83185130	         -1.25615797	          0.07152262	          1.32288611	          0.94456950	         -0.00228259	         35.59373715	          5.26964963	         -0.35961960	        -51.47222597	         21.32801305	          2.55049308	          2.51249448	          7.88097290	          4.53989179	          5.04747900	        -32.65827776	         11.20898461	         -1.23533716	         29.05965399	        -11.49658920	          1.13238036	         -1.80811772	          1.23173297	         -4.30637920	          0.05160502	         53.63780351	         19.41234180	          0.14073795	         -2.73664773	          0.75308057	
          0.40504695	         -6.85016003	         -1.37429269	          0.01831828	          1.34011857	          0.94599317	         -0.00225420	         36.37079763	          5.45343640	         -0.29425720	        -50.36493180	         20.73097381	          2.56647533	          2.35194319	          6.66189416	          4.16434538	          4.59420186	        -32.14351023	          9.58192739	         -0.64472998	         30.49226121	        -11.47591267	          1.42188071	         -1.98452483	          1.10684062	         -4.25425493	         -0.00250217	         54.37500267	         19.30083524	          0.08380495	         -2.75425166	          0.51700558	
          0.41017412	         -6.86612941	         -1.48345205	         -0.03943303	          1.35742729	          0.94731744	         -0.00221781	         37.09881536	          5.62427041	         -0.21314667	        -49.21056832	         20.07074002	          2.59073940	          2.20131032	          5.46097252	          3.80382520	          4.15181916	        -31.65300170	          7.86140018	         -0.04069360	         31.91153884	        -11.44712105	          1.70203792	         -2.15424890	          1.01486311	         -4.19632606	         -0.04045797	         54.98382476	         19.15375163	          0.02365349	         -2.73377045	          0.34176080	
          0.41530130	         -6.87979541	         -1.58263918	         -0.10178323	          1.37479536	          0.94852280	         -0.00217227	         37.77839342	          5.78118128	         -0.11688258	        -48.01037652	         19.35936718	          2.62070480	          2.05989231	          4.29513764	          3.46328962	          3.73621685	        -31.21630741	          6.08064255	          0.58528954	         33.24840868	        -11.41273128	          1.97063395	         -2.31575460	          0.95635703	         -4.13347004	         -0.06314760	         55.46761593	         18.97947080	         -0.03860336	         -2.67467973	          0.21540052	
